<?xml version="1.0" encoding="UTF-8"?>
<svg id="Capa_2" data-name="Capa 2" xmlns="http://www.w3.org/2000/svg" width="873.97" height="163.13" viewBox="0 0 873.97 163.13">
  <g id="Capa_1-2" data-name="Capa 1">
    <path d="M301.9,42.98l9.18,85.41h-30.47l-1.88-60.94-11.76,60.94h-30.82l-12-60.47-1.76,60.47h-30.47l9.18-85.41h40l10.23,55.65,8.94-55.65h41.65ZM358.35,129.56c-13.41,0-23.29-3.06-29.65-9.18-6.27-6.2-9.41-14.31-9.41-24.35s3.14-17.76,9.41-23.88c6.35-6.12,16.23-9.18,29.65-9.18,9.02,0,16.55,1.49,22.59,4.47,6.12,2.9,10.63,6.86,13.53,11.88,2.9,4.94,4.35,10.51,4.35,16.71,0,10.12-3.37,18.23-10.12,24.35-6.67,6.12-16.78,9.18-30.35,9.18ZM358.82,109.56c5.1,0,8.9-1.22,11.41-3.65,2.51-2.43,3.76-5.69,3.76-9.76,0-3.84-1.25-6.98-3.76-9.41-2.51-2.51-6.31-3.76-11.41-3.76s-8.82,1.22-11.18,3.65-3.53,5.61-3.53,9.53,1.18,7.33,3.53,9.76,6.08,3.65,11.18,3.65ZM444.97,129.56c-13.41,0-23.29-3.06-29.65-9.18-6.27-6.2-9.41-14.31-9.41-24.35s3.14-17.76,9.41-23.88c6.35-6.12,16.23-9.18,29.65-9.18,9.02,0,16.55,1.49,22.59,4.47,6.12,2.9,10.63,6.86,13.53,11.88,2.9,4.94,4.35,10.51,4.35,16.71,0,10.12-3.37,18.23-10.12,24.35-6.67,6.12-16.78,9.18-30.35,9.18ZM445.44,109.56c5.1,0,8.9-1.22,11.41-3.65s3.76-5.69,3.76-9.76c0-3.84-1.25-6.98-3.76-9.41-2.51-2.51-6.31-3.76-11.41-3.76s-8.82,1.22-11.18,3.65c-2.35,2.43-3.53,5.61-3.53,9.53s1.18,7.33,3.53,9.76c2.35,2.43,6.08,3.65,11.18,3.65ZM539.59,128.39c.47-11.53.71-22.16.71-31.88,0-3.45-.86-6.2-2.59-8.24-1.65-2.04-3.76-3.06-6.35-3.06s-4.78,1.18-6.59,3.53c-1.8,2.27-2.86,5.41-3.18,9.41-.16,5.96-.24,10.2-.24,12.71,0,5.33.16,11.18.47,17.53h-28.12c.63-11.29.94-21.96.94-32s-.31-20.78-.94-32.23c5.18.24,9.14.35,11.88.35,2.9,0,6.86-.12,11.88-.35l3.41,17.29c1.8-6.27,4.63-10.9,8.47-13.88,3.84-3.06,8.31-4.59,13.41-4.59,4.71,0,8.78,1.06,12.23,3.18,3.45,2.04,6.04,4.82,7.76,8.35,1.8,3.53,2.71,7.49,2.71,11.88v16.94c0,10.43.2,18.78.59,25.06h-26.47ZM603.16,81.33c-.08,4.71-.12,11.92-.12,21.65,0,11.69.08,20.16.24,25.41h-27.76l.12-13.29c.16-14.59.24-25.84.24-33.76s-.08-18.2-.24-32l-.12-12.71h27.76c-.16,11.14-.24,20.23-.24,27.29,0,7.84.04,13.65.12,17.41ZM628.5,57.21c-4.94,0-8.63-1.22-11.06-3.65-2.35-2.43-3.53-5.61-3.53-9.53s1.18-7.02,3.53-9.53c2.43-2.51,6.12-3.76,11.06-3.76s8.31,1.29,10.82,3.88c2.51,2.51,3.76,5.65,3.76,9.41s-1.22,7.1-3.65,9.53c-2.43,2.43-6.08,3.65-10.94,3.65ZM614.85,128.39c.55-12.63.82-23.06.82-31.29,0-9.8-.31-20.78-.94-32.94h28.23c-.63,11.69-.94,22.67-.94,32.94,0,8.63.27,19.06.82,31.29h-28ZM709.16,64.15h22.59c-.39,12.86-.59,31.14-.59,54.82,0,9.33-1.88,16.98-5.65,22.94-3.69,5.96-8.59,10.27-14.71,12.94-6.12,2.75-12.94,4.12-20.47,4.12s-14.12-1.1-20-3.29c-5.88-2.12-10.35-4.98-13.41-8.59l5.29-18c4.24,2.43,8.23,4.16,12,5.18,3.76,1.1,7.69,1.65,11.76,1.65,13.33,0,20-5.65,20-16.94,0-1.65.04-2.82.12-3.53v-1.88c.08-.78.08-1.8,0-3.06-4,11.14-12.47,16.71-25.41,16.71-5.25,0-9.96-1.41-14.12-4.24-4.08-2.82-7.25-6.63-9.53-11.41-2.27-4.86-3.41-10.2-3.41-16s1.14-11.41,3.41-16.35c2.27-5.02,5.45-8.98,9.53-11.88,4.08-2.9,8.67-4.35,13.76-4.35,13.25,0,21.88,4.67,25.88,14l2.94-12.82ZM692.93,108.39c1.8,0,3.69-.39,5.65-1.18,1.96-.86,3.65-2.2,5.06-4,1.41-1.88,2.12-4.2,2.12-6.94,0-4.86-1.1-8.31-3.29-10.35-2.2-2.12-5.45-3.18-9.76-3.18-3.76,0-6.74,1.25-8.94,3.76-2.2,2.51-3.29,5.76-3.29,9.76,0,3.61,1.18,6.55,3.53,8.82,2.43,2.2,5.41,3.29,8.94,3.29ZM787.06,128.39c.47-11.53.71-22.16.71-31.88,0-3.45-.86-6.2-2.59-8.24-1.65-2.04-3.76-3.06-6.35-3.06-2.75,0-5.1,1.33-7.06,4-1.88,2.67-2.82,6.31-2.82,10.94l-.12-.24c0,12.78.16,22.27.47,28.47h-28.12c.63-11.29.94-26.59.94-45.88s-.31-34.59-.94-45.88h28l.12,36.23-.12,6.24c1.88-5.49,4.67-9.53,8.35-12.12,3.76-2.67,8-4,12.71-4s8.78,1.06,12.23,3.18c3.45,2.04,6.04,4.82,7.76,8.35,1.8,3.53,2.71,7.49,2.71,11.88v16.94c0,10.43.2,18.78.59,25.06h-26.47ZM873.97,85.21c-7.22-.47-13.8-.82-19.76-1.06l-.12,12.47c0,4.24.9,7.57,2.71,10,1.88,2.35,5.18,3.53,9.88,3.53,1.8,0,3.53-.16,5.18-.47-.31,2.9-.47,5.84-.47,8.82,0,1.41.08,4.63.24,9.65-3.45.63-6.35,1.02-8.71,1.18-2.35.16-5.41.24-9.18.24-9.18,0-15.69-2.2-19.53-6.59-3.76-4.47-5.65-10.67-5.65-18.59l.12-19.88c-3.69.16-7.53.39-11.53.71v-20.82c4.08,0,7.53-1.29,10.35-3.88,2.82-2.59,4.51-5.69,5.06-9.29h32c-4,5.49-8.43,9.88-13.29,13.18h22.71v20.82Z" fill="#ff2e9b"/>
    <g>
      <path d="M30.78,19.71c-1.79,4.36-3.57,8.67-4.9,13.32-4.91,17.24-3.73,33.7,6.4,48.79,3.39,5.04,7.5,9.37,11.94,13.47,6.66,6.16,14.56,10.17,23.11,12.48,16.5,4.45,34.39,1.08,48.32-9.05,4.89-3.55,9.45-7.42,13.34-12.1,14.91-17.94,14.66-39.39,8.03-60.7-.13-.42-.24-.73-.59-.87-.08-.15.14-.15.24-.17,4.3,4.57,8.6,8.73,11.91,14.2,9.56,15.79,14.04,34.29,11.89,52.76-2.14,18.31-10.56,35.39-23.59,48.23-21.99,21.68-54.64,28.83-83.63,18.23C19.2,145.84-3.22,111.39.38,75.03c1.52-15.33,7.27-29.93,16.73-42.07,3.94-5.06,8.45-9.75,13.67-13.25Z" fill="#ff2e9b"/>
      <path d="M136.67,24.88c-.09.03-.31.02-.24.17-5.31-2.19-10.87-3.74-16.64-4.7-14.42-2.38-28.14.39-39.93,9.07-4.82,3.55-8.9,7.71-12.67,12.36-4.41,5.46-7.67,11.58-9.56,18.3-4.69,16.71-.87,34.19,9.68,47.68-8.55-2.31-16.45-6.32-23.11-12.48-4.44-4.1-8.55-8.43-11.94-13.47-10.13-15.09-11.32-31.55-6.4-48.79,1.33-4.66,3.1-8.96,4.9-13.32.38-.51.73-.79,1.22-1.22C43.15,8.77,56.95,2.52,71.66.61c17.67-2.3,35.45,1.96,50.47,11.28,5.76,3.58,10.09,8.24,14.55,12.99Z" fill="#5e00ff"/>
      <path d="M121.67,64.61c-11.26,1.75-18.86,9.08-20.75,20.83-1.67-11.24-8.83-18.76-20.32-20.78,6.33-1.19,12-4.51,15.8-9.79,2.38-3.31,3.61-6.96,4.51-10.87,2.08,11.47,9.78,18.35,20.76,20.62Z" fill="#ff2e9b"/>
    </g>
  </g>
</svg>